<svg xml:base="/howl/">
<svg width="1414pt" height="707pt" viewBox="0 0 1414 707" version="1.1" xmlns="http://www.w3.org/2000/svg">
<path fill="#fefefe" d=" M 0.00 0.00 L 1414.00 0.00 L 1414.00 707.00 L 0.00 707.00 L 0.00 0.00 Z" />
<path fill="#050505" d=" M 311.73 97.84 C 314.11 98.24 316.46 98.80 318.88 98.94 C 320.11 100.16 321.33 101.38 322.57 102.59 C 322.56 103.46 322.53 105.20 322.52 106.07 C 322.09 106.46 321.24 107.23 320.82 107.62 C 320.83 108.51 320.85 110.29 320.87 111.18 C 321.37 111.48 322.38 112.07 322.89 112.37 C 324.95 111.19 327.13 110.17 329.58 110.38 C 330.35 111.20 331.12 112.02 331.91 112.83 C 335.13 112.80 338.26 113.67 341.14 115.09 C 346.05 115.91 351.13 114.91 356.03 115.82 C 359.55 116.33 361.99 119.67 365.68 119.55 C 369.93 120.20 373.56 122.91 377.88 123.07 C 378.29 122.60 379.12 121.64 379.53 121.16 C 381.01 121.52 382.48 121.89 383.97 122.23 C 389.08 118.79 395.68 120.61 401.23 118.73 L 401.74 119.80 C 403.59 118.74 404.85 116.97 406.52 115.69 C 412.33 114.67 418.57 116.68 424.16 114.59 C 424.51 114.81 425.22 115.27 425.57 115.50 C 427.24 114.67 429.07 114.53 430.91 114.57 C 432.93 116.18 434.97 117.76 437.12 119.20 C 437.81 116.90 439.96 117.08 441.89 117.05 C 442.49 117.72 443.11 118.40 443.73 119.08 C 443.94 121.06 444.33 123.01 444.87 124.93 C 445.46 125.82 446.05 126.73 446.62 127.64 C 449.45 128.51 452.07 129.93 453.19 132.86 C 452.24 134.98 452.00 137.32 452.74 139.55 C 452.32 141.03 452.26 142.55 452.95 143.99 C 452.40 145.96 452.20 148.00 452.14 150.04 C 449.64 152.72 445.11 155.48 446.94 159.72 C 446.47 161.57 445.92 163.39 445.47 165.24 C 446.62 166.84 448.02 168.24 449.23 169.80 C 448.33 172.99 445.71 175.15 444.47 178.14 C 442.98 181.19 438.33 180.87 437.83 184.53 C 436.85 186.34 437.88 188.25 438.25 190.06 C 435.56 189.98 433.27 191.32 431.18 192.84 C 428.75 191.80 426.11 191.82 423.52 191.82 C 422.12 190.75 420.69 189.72 419.31 188.64 C 418.26 188.59 417.22 188.54 416.19 188.49 C 413.87 187.11 410.89 186.27 410.98 183.05 C 409.83 181.67 408.69 180.29 407.63 178.85 C 406.68 178.52 405.74 178.18 404.80 177.83 C 404.28 178.05 403.23 178.50 402.70 178.72 C 401.46 179.56 400.25 180.43 399.06 181.34 C 398.40 180.91 397.75 180.48 397.10 180.06 C 394.11 182.07 390.56 182.07 387.09 181.95 C 385.65 183.05 384.17 184.10 382.76 185.24 C 381.35 185.28 379.94 185.31 378.55 185.35 C 375.79 188.06 373.19 190.93 370.33 193.53 C 368.25 195.42 365.36 195.80 362.83 196.77 C 360.38 197.81 358.04 199.09 355.66 200.25 C 354.90 201.38 353.78 202.14 352.52 202.61 C 349.08 204.06 346.12 206.48 342.50 207.52 C 340.22 211.16 335.95 213.08 331.71 212.85 C 329.70 213.71 327.48 213.51 325.36 213.55 C 324.99 213.96 324.26 214.78 323.90 215.20 C 322.11 215.20 320.33 215.21 318.55 215.24 C 317.96 214.94 317.38 214.64 316.80 214.35 C 314.85 214.98 312.88 215.52 310.94 216.13 C 310.86 215.60 310.70 214.55 310.62 214.02 C 306.31 215.79 301.69 216.26 297.29 217.72 C 295.61 220.96 292.13 222.46 289.73 225.04 C 288.02 224.55 286.25 224.32 284.48 224.25 C 283.73 223.26 283.00 222.25 282.29 221.23 C 280.33 220.99 278.39 220.60 276.55 219.90 C 274.87 219.33 273.08 219.18 271.34 219.40 C 269.85 220.51 269.59 222.49 269.03 224.13 C 266.33 224.55 263.67 225.25 261.06 226.06 C 260.01 225.47 258.96 224.89 257.93 224.31 C 257.60 223.00 257.24 221.71 256.86 220.43 C 255.43 220.02 254.01 219.58 252.59 219.14 C 251.45 216.73 249.95 214.40 249.78 211.65 C 250.13 212.44 250.85 214.01 251.20 214.80 C 251.65 212.28 253.91 211.05 255.55 209.39 C 253.00 207.99 251.50 205.11 251.04 202.34 C 251.50 202.06 252.44 201.50 252.90 201.21 C 252.21 199.98 251.53 198.75 250.86 197.51 C 248.89 197.66 247.06 198.41 245.33 199.32 C 240.98 199.60 236.68 199.99 232.34 199.34 C 232.06 199.10 231.51 198.62 231.23 198.39 C 229.84 199.02 228.44 199.60 227.05 200.22 C 225.43 199.64 223.78 199.20 222.17 198.63 C 220.12 198.57 218.07 198.62 216.04 198.39 C 215.78 197.70 215.27 196.32 215.01 195.63 C 213.67 194.05 212.34 192.46 211.10 190.80 C 209.01 190.60 207.17 189.59 205.38 188.59 C 204.62 188.59 203.09 188.61 202.33 188.62 C 201.96 188.16 201.20 187.25 200.83 186.79 C 199.39 186.93 197.96 187.09 196.53 187.29 C 194.58 186.21 192.38 185.77 190.28 185.10 C 191.85 181.00 191.02 176.55 191.23 172.28 C 190.54 171.98 189.17 171.38 188.49 171.08 C 189.36 167.32 189.28 163.02 192.00 159.98 C 193.67 158.97 195.58 158.37 197.17 157.21 C 199.35 155.29 200.87 152.76 202.90 150.68 C 203.97 151.93 205.01 153.19 205.96 154.54 C 206.76 154.47 208.35 154.34 209.15 154.28 C 208.61 155.48 208.05 156.69 207.51 157.89 C 207.07 157.88 206.18 157.84 205.74 157.82 C 205.41 159.02 204.89 160.13 203.96 160.98 C 203.29 162.07 202.64 163.17 202.01 164.29 C 204.15 164.56 206.26 165.06 208.36 165.52 C 208.38 168.38 211.44 168.68 213.60 168.83 C 213.59 167.84 213.57 166.86 213.56 165.88 C 212.95 165.02 212.36 164.15 211.80 163.27 C 212.76 161.78 212.75 160.03 212.88 158.35 C 209.12 157.65 212.39 155.83 213.47 154.37 C 212.75 154.36 211.31 154.32 210.59 154.30 C 211.37 153.31 212.16 152.32 212.96 151.34 C 212.69 150.09 212.39 148.85 212.05 147.62 C 212.28 147.25 212.73 146.52 212.96 146.15 C 212.54 144.94 212.13 143.73 211.73 142.52 C 215.20 142.23 216.47 138.81 218.51 136.54 C 218.22 136.12 217.66 135.29 217.37 134.87 C 216.83 134.50 215.76 133.75 215.22 133.38 C 216.38 131.17 216.35 128.80 215.19 126.59 C 215.79 126.25 216.97 125.56 217.57 125.22 C 218.05 123.96 218.52 122.71 218.95 121.43 C 216.49 121.33 214.03 121.32 211.58 121.26 C 211.62 119.30 213.15 118.48 214.75 117.84 C 216.25 118.36 217.79 118.78 219.36 119.08 C 219.39 118.12 219.45 116.19 219.49 115.23 C 220.50 116.05 221.51 116.85 222.55 117.65 C 222.61 116.78 222.73 115.03 222.79 114.16 C 224.48 113.34 226.58 113.02 227.66 111.32 C 228.20 111.33 229.29 111.35 229.84 111.36 C 231.65 112.77 233.50 114.14 235.20 115.71 C 235.57 115.42 236.33 114.86 236.71 114.58 C 238.16 115.39 239.82 115.50 241.45 115.57 C 243.49 116.80 245.49 118.08 247.44 119.45 C 250.62 120.02 253.80 120.75 256.67 122.30 C 257.33 123.73 258.03 125.15 258.74 126.57 C 258.26 126.99 257.31 127.82 256.84 128.24 C 256.84 130.27 256.84 132.30 256.84 134.33 C 257.40 134.36 258.51 134.44 259.07 134.48 C 258.69 135.21 257.92 136.68 257.53 137.42 C 255.10 138.28 255.01 140.59 255.14 142.82 C 255.87 142.83 257.34 142.86 258.07 142.87 C 259.95 140.45 262.52 139.16 265.55 138.91 C 265.72 134.97 268.30 132.14 271.68 130.44 C 275.51 131.51 279.51 132.75 283.47 131.55 C 288.59 131.31 294.01 129.41 296.86 124.87 C 296.46 123.99 296.06 123.10 295.67 122.21 C 296.66 122.18 298.62 122.11 299.61 122.08 C 298.95 120.80 298.29 119.52 297.60 118.26 C 297.59 117.45 297.58 115.83 297.57 115.01 C 298.20 114.03 298.84 113.06 299.48 112.09 C 299.20 111.43 298.64 110.11 298.36 109.45 C 299.16 108.40 299.94 107.33 300.70 106.24 L 301.26 106.37 C 302.79 103.84 304.27 101.14 306.79 99.46 C 307.41 99.73 308.64 100.27 309.25 100.54 C 309.87 100.24 311.10 99.65 311.72 99.36 C 311.72 98.98 311.73 98.22 311.73 97.84 Z" />
<path fill="#050505" d=" M 955.85 103.49 C 959.77 102.89 963.72 103.61 967.67 103.42 C 970.00 103.73 968.94 106.64 969.25 108.19 C 971.51 108.16 973.78 108.40 976.05 108.34 C 978.12 107.52 979.50 105.66 981.12 104.21 C 982.41 104.70 983.68 105.20 985.00 105.67 C 985.09 106.22 985.27 107.34 985.35 107.90 C 987.31 108.38 989.22 109.06 990.90 110.23 C 992.59 109.64 994.30 109.05 996.07 108.68 C 998.11 109.30 999.52 111.18 1001.44 112.12 C 1001.38 113.38 1001.33 114.64 1001.30 115.90 C 1000.58 117.94 999.89 120.01 999.70 122.17 C 1002.03 124.22 1005.70 123.06 1008.42 124.64 C 1008.31 125.47 1008.21 126.31 1008.13 127.15 C 1009.68 128.01 1011.15 129.13 1012.91 129.57 C 1015.60 129.14 1018.25 128.50 1021.00 128.41 C 1021.91 127.51 1022.85 126.64 1023.81 125.78 C 1025.52 125.16 1028.01 125.26 1028.81 123.29 C 1030.12 120.65 1030.93 117.79 1032.25 115.14 C 1032.76 114.15 1033.12 111.77 1034.75 112.52 C 1036.52 113.00 1037.98 114.13 1039.13 115.56 C 1041.10 114.75 1043.15 112.38 1045.34 114.15 C 1047.16 114.30 1048.99 114.46 1050.84 114.58 C 1052.92 112.22 1056.19 113.06 1058.35 114.83 C 1061.33 114.31 1064.26 112.71 1067.34 113.66 C 1069.60 114.45 1070.86 111.83 1072.69 110.98 C 1072.98 115.85 1077.59 117.98 1081.39 119.93 C 1081.35 120.97 1081.33 122.02 1081.33 123.06 C 1083.64 125.62 1084.89 128.82 1085.72 132.11 C 1087.12 132.60 1088.59 133.09 1089.25 134.59 C 1089.87 134.55 1090.50 134.51 1091.16 134.47 C 1092.02 133.80 1092.90 133.14 1093.80 132.49 C 1094.96 133.88 1096.53 134.66 1098.33 134.89 C 1098.88 136.32 1099.46 137.76 1100.16 139.14 C 1101.24 141.35 1102.88 143.18 1105.19 144.14 C 1105.36 144.54 1105.70 145.34 1105.88 145.74 C 1107.11 146.69 1108.31 147.70 1109.54 148.69 C 1109.60 149.29 1109.74 150.50 1109.80 151.10 C 1114.27 153.89 1115.29 159.44 1118.62 163.28 C 1118.58 163.89 1118.49 165.12 1118.45 165.74 C 1120.06 166.66 1121.62 167.71 1123.08 168.90 C 1122.85 169.56 1122.38 170.87 1122.14 171.53 C 1121.05 171.93 1119.97 172.34 1118.92 172.75 C 1118.52 173.78 1118.15 174.82 1117.78 175.85 C 1117.93 176.23 1118.24 176.97 1118.39 177.35 C 1119.04 177.30 1120.34 177.21 1121.00 177.16 C 1120.90 179.67 1123.17 180.46 1124.96 181.50 C 1125.28 178.55 1127.73 179.53 1128.58 181.68 C 1131.32 180.82 1131.65 177.78 1133.21 175.87 C 1136.80 176.26 1140.33 173.41 1143.66 175.36 C 1145.46 176.11 1148.12 175.90 1148.26 178.50 C 1148.79 178.54 1149.84 178.64 1150.36 178.68 C 1150.92 179.01 1152.04 179.67 1152.60 180.00 C 1153.50 181.73 1151.36 182.89 1150.55 184.16 C 1151.18 185.52 1151.77 186.91 1152.02 188.42 C 1152.77 189.89 1153.57 191.35 1154.41 192.80 C 1154.11 195.54 1155.59 197.81 1156.98 200.02 C 1159.05 200.58 1160.90 201.69 1162.69 202.88 C 1163.11 204.19 1163.53 205.51 1163.95 206.84 C 1165.74 206.84 1167.57 206.83 1169.39 206.83 C 1169.49 208.55 1169.55 210.28 1169.62 212.01 C 1169.99 212.43 1170.75 213.27 1171.13 213.69 C 1168.33 215.27 1168.72 219.13 1170.63 221.29 C 1172.01 222.96 1173.10 224.88 1174.68 226.41 C 1178.52 227.35 1182.23 228.82 1186.11 229.62 C 1186.28 230.00 1186.61 230.74 1186.78 231.11 C 1187.57 231.18 1189.15 231.33 1189.94 231.40 C 1189.63 232.29 1189.02 234.08 1188.71 234.97 C 1188.23 237.04 1188.09 239.43 1189.92 240.91 C 1190.85 242.62 1192.04 244.25 1192.42 246.20 C 1192.63 248.22 1191.42 250.64 1193.19 252.23 C 1193.12 252.63 1192.98 253.43 1192.91 253.83 C 1193.18 255.33 1194.07 256.95 1193.30 258.45 C 1192.30 260.31 1190.42 261.44 1189.04 262.98 C 1186.88 264.01 1184.78 265.15 1182.56 266.02 C 1182.22 266.32 1181.53 266.92 1181.18 267.23 C 1180.13 267.83 1179.11 268.45 1178.12 269.11 C 1176.12 271.79 1173.72 274.32 1173.15 277.75 C 1174.17 280.76 1176.16 283.14 1178.77 284.93 C 1178.47 286.57 1178.07 288.19 1177.62 289.79 C 1177.26 289.68 1176.53 289.46 1176.17 289.35 C 1175.46 290.44 1174.77 291.53 1174.09 292.62 C 1171.66 291.50 1169.06 291.42 1166.71 292.78 C 1167.32 294.69 1168.90 295.91 1170.46 297.05 C 1170.45 297.30 1170.43 297.79 1170.42 298.04 C 1168.48 298.47 1166.58 298.97 1164.68 299.48 C 1164.62 298.95 1164.49 297.89 1164.43 297.36 C 1163.54 297.41 1162.66 297.45 1161.81 297.51 C 1160.01 299.32 1156.92 300.78 1157.49 303.83 C 1156.38 305.28 1155.37 306.80 1154.39 308.34 C 1152.35 307.95 1150.58 308.73 1149.46 310.43 C 1149.33 311.94 1151.14 312.65 1151.93 313.75 C 1152.94 317.83 1156.27 320.89 1156.26 325.27 C 1156.11 325.68 1155.82 326.50 1155.67 326.91 C 1157.15 329.87 1156.72 333.26 1155.23 336.12 C 1153.47 339.18 1155.57 342.88 1153.85 345.97 C 1153.63 347.31 1153.46 348.66 1153.44 350.03 C 1152.31 352.13 1151.26 354.29 1151.05 356.70 C 1148.22 359.31 1144.74 360.82 1141.03 361.65 C 1140.52 363.45 1139.88 365.21 1139.10 366.91 C 1138.07 367.55 1137.09 368.21 1136.14 368.92 C 1135.46 370.10 1134.61 371.15 1133.70 372.14 C 1132.86 374.55 1133.60 376.91 1134.78 379.05 C 1133.18 380.57 1131.66 382.19 1130.48 384.07 C 1130.37 383.69 1130.14 382.93 1130.03 382.55 C 1127.16 382.60 1124.25 382.44 1121.52 383.44 C 1121.12 382.55 1120.73 381.67 1120.36 380.79 C 1117.77 379.71 1115.06 378.85 1112.28 379.78 C 1112.03 378.91 1111.54 377.17 1111.30 376.31 L 1112.00 375.87 C 1112.55 375.74 1113.65 375.50 1114.19 375.37 C 1114.33 374.69 1114.60 373.32 1114.73 372.63 C 1115.41 372.52 1116.75 372.28 1117.43 372.17 C 1117.52 371.83 1117.71 371.15 1117.81 370.81 C 1116.88 370.24 1115.97 369.67 1115.07 369.11 C 1113.58 370.26 1112.02 371.37 1110.90 372.90 C 1110.57 373.16 1109.92 373.68 1109.60 373.94 C 1109.12 374.63 1108.66 375.33 1108.22 376.03 C 1109.46 377.47 1110.71 378.92 1112.26 380.08 C 1112.36 380.60 1112.56 381.64 1112.66 382.16 C 1113.81 382.31 1114.96 382.47 1116.13 382.63 C 1116.55 383.93 1117.01 385.24 1117.44 386.55 C 1118.15 386.53 1119.57 386.48 1120.28 386.46 C 1120.35 387.17 1120.50 388.59 1120.57 389.29 C 1123.03 390.88 1125.53 392.99 1128.68 392.58 C 1129.92 394.12 1131.10 395.73 1131.89 397.56 L 1132.39 397.20 C 1130.27 400.17 1128.29 403.24 1126.15 406.19 C 1121.15 409.18 1115.40 410.42 1109.86 411.92 C 1108.54 416.27 1104.30 418.38 1100.75 420.68 C 1099.84 421.70 1098.96 422.74 1098.14 423.83 C 1096.23 423.41 1094.40 422.77 1092.60 422.07 C 1092.18 423.29 1091.75 424.51 1091.33 425.74 C 1087.56 424.49 1085.50 428.43 1084.09 431.16 C 1082.74 431.64 1081.41 432.13 1080.10 432.64 C 1080.84 433.71 1081.60 434.77 1082.38 435.84 C 1078.57 437.10 1075.82 440.24 1072.10 441.61 C 1071.58 441.25 1070.54 440.51 1070.02 440.14 C 1069.70 439.07 1069.39 438.00 1069.09 436.94 C 1068.57 436.51 1067.52 435.65 1067.00 435.22 C 1068.54 434.74 1070.61 432.71 1069.04 431.14 C 1068.30 429.02 1065.91 429.88 1064.23 429.72 C 1064.37 429.03 1064.67 427.66 1064.81 426.97 C 1063.80 425.92 1062.83 424.87 1061.84 423.83 C 1061.44 422.24 1061.01 420.67 1060.58 419.09 C 1062.05 417.44 1062.95 415.42 1063.63 413.34 C 1064.00 413.05 1064.74 412.48 1065.11 412.20 C 1065.11 409.65 1065.34 407.07 1066.53 404.78 C 1068.19 404.73 1069.83 404.62 1071.51 404.53 C 1074.78 401.58 1073.87 396.87 1071.85 393.49 C 1071.69 392.33 1071.47 391.19 1071.21 390.07 C 1069.51 388.98 1067.63 388.23 1065.85 387.32 C 1065.38 387.42 1064.43 387.61 1063.96 387.71 C 1063.25 388.72 1062.58 389.74 1061.91 390.78 C 1061.74 390.11 1061.39 388.78 1061.22 388.11 C 1060.50 387.12 1059.95 386.05 1059.45 384.96 C 1060.54 383.68 1061.63 382.40 1062.74 381.14 C 1064.09 380.08 1064.09 378.28 1064.57 376.79 C 1062.73 376.60 1060.91 376.29 1059.08 376.32 C 1057.47 376.75 1056.98 379.24 1055.03 378.82 C 1052.04 379.03 1049.55 377.05 1046.69 376.54 C 1045.98 374.50 1046.11 371.59 1043.54 370.94 C 1043.47 370.57 1043.34 369.83 1043.27 369.46 C 1042.72 369.24 1041.61 368.80 1041.05 368.59 C 1040.51 367.74 1039.97 366.90 1039.43 366.08 C 1040.12 362.76 1038.53 359.88 1036.14 357.74 C 1032.73 354.82 1027.93 354.81 1023.84 353.38 C 1020.45 356.73 1015.80 355.21 1012.04 353.48 C 1008.98 353.61 1005.74 353.05 1002.90 354.43 C 1002.24 355.67 1001.83 357.12 1000.88 358.18 C 999.57 358.32 998.26 358.35 996.97 358.26 C 994.77 357.36 992.26 357.07 990.31 355.71 C 988.94 353.83 986.63 351.45 988.28 349.06 C 988.35 348.76 988.47 348.16 988.54 347.86 C 984.69 346.24 984.23 341.95 983.13 338.47 C 982.13 337.19 980.78 336.26 979.60 335.20 C 979.16 333.56 978.70 331.94 978.31 330.31 C 978.01 330.31 977.41 330.33 977.11 330.33 C 975.49 328.54 972.55 326.99 970.86 329.61 C 969.46 328.90 968.01 328.34 966.53 327.91 C 966.25 327.55 965.69 326.82 965.41 326.45 C 964.57 326.38 962.91 326.23 962.07 326.15 C 959.60 324.80 957.25 323.06 955.76 320.63 C 951.73 318.10 946.34 321.43 942.87 317.67 C 941.77 317.25 940.67 316.84 939.58 316.44 C 938.37 314.07 937.33 311.61 935.90 309.36 C 933.91 309.68 931.76 311.10 929.85 309.69 C 927.87 309.74 925.90 309.72 923.95 309.53 C 922.99 310.04 922.03 310.53 921.06 311.01 C 920.41 312.06 919.76 313.10 919.13 314.16 C 916.13 314.25 913.15 314.42 910.18 314.69 C 910.47 315.30 911.04 316.51 911.33 317.12 L 909.73 316.38 C 908.91 318.21 908.16 320.08 907.39 321.94 C 907.45 322.52 907.58 323.67 907.64 324.25 C 906.66 324.24 904.71 324.23 903.73 324.22 C 902.98 323.62 902.24 323.02 901.51 322.42 C 901.58 321.51 901.71 319.68 901.78 318.76 C 902.03 318.10 902.54 316.77 902.79 316.10 C 902.30 315.72 901.33 314.95 900.85 314.57 C 898.44 314.47 896.03 314.25 893.76 313.43 C 893.46 314.27 893.16 315.11 892.87 315.95 C 891.16 311.70 890.51 307.11 888.79 302.89 C 886.78 300.89 884.98 298.70 884.11 295.95 C 882.88 292.70 881.46 289.48 880.77 286.07 C 880.52 279.89 880.14 273.70 880.88 267.54 C 881.57 269.19 883.45 269.41 884.79 270.28 C 884.42 271.18 884.01 272.06 883.59 272.94 C 883.86 273.53 884.41 274.71 884.68 275.30 C 885.74 276.08 886.81 276.87 887.87 277.68 C 890.34 275.31 893.39 275.76 896.42 276.53 C 895.73 279.10 895.38 281.73 895.26 284.39 C 894.15 284.82 893.04 285.25 891.93 285.67 C 890.90 289.26 893.63 291.90 895.24 294.74 C 895.14 296.96 894.12 299.24 895.64 301.24 C 896.21 301.52 897.35 302.09 897.92 302.37 C 899.14 301.97 900.38 301.59 901.63 301.25 C 901.94 300.74 902.56 299.72 902.87 299.21 C 901.03 297.58 900.72 295.06 899.96 292.87 C 899.71 291.80 899.48 290.73 899.27 289.66 C 899.04 289.18 898.58 288.24 898.35 287.77 C 897.73 286.83 897.14 285.88 896.56 284.93 C 898.03 283.39 899.46 281.79 900.70 280.05 C 904.11 278.71 901.98 275.16 900.61 273.09 C 900.84 272.72 901.31 271.99 901.54 271.62 C 903.40 271.75 905.38 271.49 907.09 272.45 C 908.03 272.43 908.99 272.41 909.96 272.39 C 911.45 273.88 913.38 274.76 915.21 275.78 C 916.88 275.22 918.67 274.83 920.10 273.72 C 921.76 273.02 923.51 272.49 925.30 272.12 C 926.16 270.75 926.99 269.37 927.84 268.00 C 924.74 266.71 927.45 263.41 927.62 261.16 C 925.54 260.20 924.08 257.83 926.66 256.40 C 927.33 256.72 928.67 257.35 929.34 257.67 C 930.05 258.92 930.82 260.15 931.62 261.36 C 934.36 262.01 937.62 265.29 940.07 262.58 C 940.94 262.96 941.82 263.33 942.72 263.71 C 944.02 260.59 947.42 260.57 950.29 260.50 C 951.32 259.71 952.28 258.83 953.30 258.00 C 953.56 255.95 953.67 253.87 953.53 251.81 C 954.81 251.52 956.11 251.24 957.42 250.96 C 957.30 251.88 957.20 252.81 957.11 253.74 C 958.69 254.53 958.54 256.09 957.71 257.42 C 958.65 259.58 960.83 259.70 962.90 259.68 C 964.20 258.16 966.24 258.39 968.02 258.07 C 970.06 257.42 972.22 257.46 974.36 257.45 C 974.72 257.00 975.44 256.10 975.80 255.65 C 975.76 253.15 975.69 250.65 975.49 248.16 C 975.03 245.90 973.46 244.08 972.92 241.84 C 972.11 241.27 971.30 240.70 970.50 240.14 C 970.33 239.17 970.17 238.20 970.04 237.23 C 973.51 235.52 974.46 230.72 978.55 230.10 C 979.54 231.72 981.43 232.04 983.05 232.68 C 983.98 231.71 984.90 230.74 985.84 229.76 C 988.13 231.04 989.30 228.94 990.35 227.26 C 989.33 225.10 989.81 221.78 987.14 220.81 C 986.31 219.67 985.60 218.39 984.48 217.52 C 982.91 217.19 981.38 217.92 979.92 218.33 C 978.52 218.02 977.13 217.73 975.75 217.45 C 975.61 217.88 975.33 218.76 975.19 219.19 C 974.05 218.83 972.92 218.49 971.80 218.16 C 971.12 216.71 970.47 215.25 969.85 213.79 C 967.71 213.54 966.01 212.45 964.90 210.62 C 960.60 208.99 956.65 205.27 951.76 206.20 C 950.11 205.47 948.47 204.75 946.83 204.05 C 946.37 203.17 945.91 202.30 945.47 201.43 C 944.46 200.77 943.58 199.95 943.04 198.87 C 942.36 198.69 940.99 198.34 940.30 198.17 C 940.52 194.79 942.52 191.99 944.23 189.20 C 944.58 191.38 944.26 193.52 943.38 195.55 C 947.07 194.90 950.99 196.13 954.48 194.43 C 954.47 190.18 954.05 185.76 955.71 181.73 C 956.63 179.70 957.66 177.71 958.74 175.75 C 958.34 175.62 957.53 175.36 957.13 175.23 C 957.96 173.63 958.62 171.96 959.33 170.31 C 959.29 169.98 959.23 169.33 959.20 169.00 C 958.14 168.19 957.10 167.36 956.23 166.38 C 955.11 165.94 954.00 165.53 952.89 165.14 C 952.67 166.16 952.23 168.21 952.01 169.24 C 951.62 168.62 950.84 167.37 950.46 166.74 C 949.54 166.08 948.66 165.40 947.79 164.72 C 948.63 164.61 950.31 164.40 951.15 164.30 C 951.13 163.60 951.08 162.21 951.06 161.51 C 948.95 161.09 946.82 160.62 944.94 159.54 C 944.58 161.00 943.89 162.27 942.40 162.80 C 942.74 163.99 943.12 165.17 943.51 166.35 C 944.39 166.86 945.29 167.37 946.19 167.88 C 947.75 170.92 950.96 172.23 953.88 173.59 C 952.93 176.59 950.49 179.01 947.95 180.71 C 947.42 180.68 946.37 180.64 945.84 180.62 C 944.41 183.08 942.49 180.43 940.96 179.62 C 939.94 179.60 938.95 179.63 937.97 179.70 C 937.81 177.02 934.83 176.95 933.59 178.90 C 931.70 176.31 933.05 173.00 931.43 170.32 C 929.89 170.42 928.39 170.53 926.88 170.61 C 926.52 170.09 925.79 169.04 925.43 168.52 C 923.26 168.65 921.10 168.65 918.95 168.55 C 919.13 164.75 915.85 161.63 912.08 162.03 C 910.98 159.35 909.49 155.02 913.00 153.49 C 914.83 153.97 916.29 155.22 917.47 156.67 C 918.69 156.49 919.93 156.31 921.18 156.13 C 922.79 156.66 924.43 157.12 926.11 157.53 C 926.23 157.98 926.47 158.90 926.59 159.36 C 927.59 159.39 929.61 159.44 930.62 159.47 C 930.02 158.41 929.42 157.36 928.80 156.32 C 927.92 152.40 926.28 148.68 923.85 145.47 C 925.15 142.73 928.28 142.56 930.94 142.72 C 931.94 140.96 933.44 139.61 935.23 138.68 C 936.29 136.55 937.20 134.34 938.40 132.27 C 938.54 130.75 938.48 129.22 937.70 127.87 C 938.81 125.43 941.38 125.55 943.68 125.38 C 943.68 124.76 943.67 123.52 943.67 122.90 C 945.03 120.51 944.42 117.77 944.48 115.18 C 946.51 111.99 949.31 109.37 951.67 106.43 C 952.97 106.51 954.27 106.58 955.59 106.64 C 955.65 105.85 955.78 104.27 955.85 103.49 Z" />
<path fill="#050505" d=" M 718.64 126.87 C 722.47 126.33 723.74 122.13 726.96 120.46 C 727.68 120.46 729.13 120.46 729.85 120.46 C 729.83 121.00 729.79 122.09 729.78 122.63 C 732.02 122.07 734.53 121.62 736.24 123.63 C 740.31 121.95 744.44 124.15 748.62 123.80 C 751.96 126.99 754.89 130.76 759.08 132.93 C 761.80 134.28 763.81 136.60 766.16 138.48 C 767.33 140.15 768.74 141.70 770.67 142.52 C 773.49 143.85 775.12 146.72 777.82 148.26 C 778.98 147.32 780.11 146.30 781.46 145.62 C 782.84 146.24 784.20 146.93 785.62 147.53 C 785.57 148.60 785.55 149.68 785.54 150.76 C 786.07 151.30 787.13 152.39 787.66 152.93 C 790.06 152.66 792.48 151.66 794.92 152.21 C 796.60 153.23 798.18 154.44 799.63 155.79 C 798.79 158.97 799.35 162.16 799.94 165.32 C 800.47 167.08 800.53 168.91 800.62 170.73 C 800.09 171.25 799.03 172.29 798.49 172.81 C 800.93 175.03 803.44 177.38 803.89 180.84 C 802.28 184.13 802.80 188.24 805.46 190.84 C 805.47 191.46 805.50 192.72 805.51 193.35 C 807.51 194.83 809.51 196.31 811.37 197.97 C 811.36 198.59 811.35 199.83 811.34 200.45 C 811.96 201.56 812.56 202.68 813.18 203.80 C 812.26 204.72 811.35 205.64 810.45 206.56 C 810.84 207.86 811.19 209.18 811.49 210.51 C 812.23 212.03 813.05 213.53 814.07 214.90 C 814.80 215.66 815.54 216.42 816.28 217.20 C 816.28 219.57 816.25 222.02 817.29 224.23 C 816.56 225.23 815.82 226.21 815.11 227.21 C 813.72 229.52 812.49 231.91 811.23 234.28 C 812.50 239.30 817.77 241.46 819.94 245.97 C 819.53 246.84 818.72 248.57 818.31 249.43 C 819.21 252.28 819.90 255.20 820.47 258.14 C 820.12 260.16 819.03 261.93 817.71 263.47 C 816.19 263.41 814.68 263.37 813.17 263.34 C 812.55 264.35 811.94 265.38 811.35 266.41 C 811.33 267.67 811.31 268.94 811.30 270.22 C 810.90 271.13 810.54 272.06 810.20 273.00 C 808.75 274.74 807.45 276.60 806.09 278.40 C 805.42 278.36 804.06 278.28 803.39 278.24 C 801.69 280.88 801.02 283.88 801.30 287.00 C 799.42 289.34 797.45 291.58 795.25 293.63 C 793.40 294.70 791.62 295.90 790.05 297.35 C 787.69 297.18 785.34 297.38 783.06 297.93 C 780.94 296.99 779.09 298.79 777.08 299.15 C 773.79 300.25 770.28 299.91 766.89 299.86 C 765.39 300.12 764.83 298.61 764.44 297.52 C 763.20 293.83 759.97 290.14 762.23 286.14 C 761.16 285.11 760.10 284.07 759.07 283.01 C 758.64 280.01 758.04 276.97 756.50 274.32 C 756.44 271.77 756.54 269.22 756.40 266.68 C 754.94 263.79 753.03 261.14 751.85 258.11 C 751.72 257.35 751.44 255.83 751.30 255.07 C 750.03 255.09 748.77 255.12 747.52 255.15 C 745.79 252.35 746.82 249.22 747.46 246.27 C 746.37 245.70 745.24 245.29 744.06 245.04 C 742.39 246.17 740.91 247.71 738.78 247.84 C 737.95 246.97 737.12 246.10 736.30 245.24 C 736.46 243.90 738.01 242.37 737.09 241.16 C 736.35 241.05 734.86 240.84 734.11 240.74 C 734.07 240.22 733.98 239.17 733.94 238.65 C 732.44 238.84 731.13 238.49 729.99 237.60 C 728.31 237.63 726.57 237.50 725.06 238.34 C 723.22 238.43 721.39 238.46 719.57 238.50 C 718.18 239.28 716.78 240.02 715.40 240.79 C 713.94 239.97 712.54 239.05 711.03 238.34 C 709.40 238.56 709.04 240.71 707.83 241.63 C 706.76 241.73 705.69 241.79 704.63 241.82 C 700.66 239.63 699.11 234.76 694.77 233.09 C 693.38 231.42 691.27 230.95 689.22 230.74 C 688.66 228.68 688.26 226.57 688.22 224.43 C 689.59 223.47 691.01 222.55 692.50 221.74 C 692.05 218.10 691.12 214.19 688.55 211.45 C 688.36 206.21 683.46 203.63 679.53 201.29 C 678.00 200.97 676.50 200.58 675.00 200.18 C 673.29 201.08 671.62 202.07 669.80 202.72 C 666.92 201.52 663.93 200.36 660.91 201.92 C 655.65 200.78 653.51 195.47 649.90 192.12 C 648.49 193.57 648.32 195.52 648.18 197.42 C 647.03 197.57 645.91 197.34 644.84 197.00 C 643.92 198.14 642.99 199.33 641.60 199.92 C 642.44 195.60 643.17 191.10 641.79 186.80 C 642.50 185.57 643.80 184.81 644.78 183.81 C 646.75 183.53 648.58 182.73 650.38 181.90 C 649.59 179.31 647.36 177.73 645.95 175.56 C 645.56 172.96 645.90 170.30 646.84 167.85 C 645.59 165.64 644.21 163.51 642.70 161.48 C 641.41 156.71 642.89 152.01 642.52 147.18 C 646.43 146.25 650.60 144.65 654.59 146.02 C 657.11 142.68 663.63 146.82 664.48 141.61 C 666.38 140.34 668.27 139.03 670.09 137.64 C 672.40 138.55 674.49 140.18 677.00 140.49 C 679.24 140.15 681.24 138.92 683.48 138.51 C 686.96 137.28 690.37 134.73 694.20 136.21 C 694.75 135.85 695.84 135.12 696.39 134.76 C 696.48 134.25 696.65 133.24 696.73 132.73 C 698.27 132.12 699.82 131.54 701.38 130.96 C 703.69 130.03 704.99 127.48 707.47 126.85 C 711.12 125.10 714.93 128.01 718.64 126.87 Z" />
<path fill="#fefefe" d=" M 251.51 146.09 C 252.51 145.15 253.51 144.21 254.53 143.30 C 254.61 145.59 252.69 147.02 251.73 148.89 C 251.13 150.32 250.88 151.87 250.49 153.37 C 247.92 152.14 248.59 149.27 248.51 146.94 C 249.50 146.64 250.50 146.36 251.51 146.09 Z" />
<path fill="#050505" d=" M 471.38 177.52 C 473.52 176.16 476.23 176.16 478.65 175.49 C 478.85 176.85 479.55 178.03 480.38 179.10 C 480.41 179.63 480.47 180.68 480.50 181.21 C 482.65 182.02 484.86 182.75 487.17 182.97 C 487.15 184.14 487.14 185.31 487.13 186.48 C 488.82 190.17 492.48 192.25 496.40 192.80 C 493.66 196.73 498.60 200.58 497.22 204.47 C 496.82 203.68 496.01 202.10 495.61 201.31 C 495.17 202.11 494.76 202.92 494.35 203.73 C 495.64 204.55 496.90 205.42 498.17 206.29 C 497.86 209.89 496.15 213.10 493.77 215.75 C 493.77 216.55 493.76 218.14 493.75 218.94 C 493.06 219.68 492.39 220.43 491.72 221.18 C 488.32 220.99 485.24 219.38 481.86 219.11 C 478.11 217.00 474.04 217.94 470.07 218.66 C 469.66 218.25 468.85 217.41 468.44 217.00 C 466.28 216.95 464.36 216.00 462.66 214.76 C 460.42 215.43 458.11 215.29 455.98 214.34 C 455.40 214.87 454.25 215.94 453.67 216.48 C 451.71 213.85 450.43 210.81 449.00 207.88 C 447.49 207.42 445.99 206.97 444.48 206.53 C 443.96 202.19 449.53 202.38 451.58 199.57 C 454.38 195.47 458.65 192.78 462.39 189.64 C 463.81 188.10 463.79 185.94 463.98 184.00 C 467.04 182.62 469.31 180.08 471.38 177.52 Z" />
<path fill="#fefefe" d=" M 1122.88 182.04 C 1124.25 182.20 1125.65 182.38 1127.03 182.61 C 1126.27 183.35 1125.53 184.08 1124.79 184.82 C 1124.14 183.90 1123.49 182.97 1122.88 182.04 Z" />
<path fill="#050505" d=" M 500.92 230.13 C 503.85 229.91 506.38 231.55 509.20 232.01 C 509.59 232.37 510.37 233.07 510.76 233.43 C 511.21 233.44 512.10 233.46 512.55 233.47 C 513.43 234.39 514.32 235.31 515.23 236.22 C 515.72 238.35 516.30 240.47 516.95 242.57 C 517.71 242.57 519.25 242.57 520.01 242.57 C 521.23 243.84 522.47 245.11 523.72 246.36 C 523.71 247.11 523.69 248.60 523.68 249.35 C 525.64 252.19 527.27 255.26 529.44 257.98 C 529.50 259.29 529.55 260.60 529.63 261.92 C 530.64 263.41 531.18 265.20 532.35 266.59 C 536.22 266.82 540.18 266.25 543.96 267.38 C 544.53 267.23 545.67 266.93 546.24 266.78 C 546.84 267.04 548.03 267.55 548.63 267.81 C 548.63 268.63 548.63 269.46 548.65 270.29 C 546.13 271.09 547.19 274.05 546.85 276.03 C 546.21 277.06 545.59 278.10 544.99 279.16 C 545.56 279.74 546.71 280.90 547.28 281.48 C 552.16 281.72 557.14 281.13 561.92 282.39 C 564.03 282.81 566.12 282.15 568.11 281.49 C 568.81 280.44 569.54 279.41 570.28 278.38 C 572.35 280.07 574.92 280.81 577.43 281.59 C 576.10 282.51 574.78 283.44 573.48 284.40 C 573.54 285.51 573.60 286.62 573.66 287.74 C 574.79 286.88 575.63 285.32 577.33 285.65 C 577.53 286.21 577.93 287.34 578.14 287.91 C 578.28 287.61 578.58 287.02 578.72 286.72 C 580.85 285.43 582.91 284.01 584.90 282.50 C 586.71 282.47 588.53 282.45 590.37 282.44 C 594.18 279.87 598.83 279.32 603.30 278.95 C 604.63 278.63 605.96 278.37 607.33 278.15 C 607.78 277.68 608.69 276.75 609.15 276.29 C 609.68 276.76 610.75 277.69 611.29 278.16 C 615.21 279.05 619.20 279.39 623.22 279.13 C 624.81 280.70 625.77 282.72 626.33 284.86 C 627.26 285.23 628.20 285.60 629.16 285.98 C 629.97 285.13 630.82 284.32 631.72 283.56 C 631.71 282.28 631.70 281.01 631.68 279.75 C 631.02 278.91 630.43 278.03 629.92 277.11 C 630.39 275.61 631.32 274.32 632.56 273.34 C 632.58 272.38 632.61 271.42 632.66 270.46 C 636.00 270.63 636.95 274.26 639.18 276.12 C 642.03 278.23 640.53 282.11 640.92 285.11 C 641.92 286.09 642.91 287.11 643.86 288.16 C 642.52 289.10 641.23 290.07 639.94 291.06 C 640.32 292.02 640.71 292.98 641.10 293.95 C 640.53 294.11 639.41 294.41 638.84 294.57 C 639.76 296.89 640.82 299.18 642.40 301.14 C 641.62 302.26 640.89 303.40 640.18 304.55 C 640.64 306.33 640.97 308.13 641.16 309.97 C 645.11 310.70 647.58 307.45 650.47 305.49 C 652.59 305.20 655.21 305.46 655.85 307.93 C 655.81 306.96 655.80 306.00 655.79 305.04 C 658.53 304.79 661.23 304.23 663.98 303.92 C 664.18 304.76 664.58 306.46 664.79 307.31 C 665.35 307.36 666.47 307.46 667.03 307.51 C 669.68 309.32 672.84 310.62 674.26 313.74 C 674.32 319.29 673.30 325.13 676.04 330.24 C 677.05 331.37 678.08 332.50 679.10 333.64 C 678.42 335.25 678.58 336.97 678.57 338.67 C 677.65 339.29 676.67 339.79 675.72 340.34 C 674.63 342.05 673.37 343.63 672.13 345.22 C 668.81 346.18 667.97 350.19 664.65 350.99 C 663.34 351.71 661.81 352.94 660.30 351.74 C 658.43 352.90 656.63 354.20 655.78 356.32 C 655.26 356.36 654.21 356.44 653.68 356.48 C 652.87 357.30 652.06 358.13 651.26 358.96 C 652.18 360.28 653.16 361.56 654.16 362.84 C 653.45 364.53 653.35 366.34 653.27 368.14 C 652.72 368.37 651.60 368.81 651.05 369.04 C 650.13 368.54 649.22 368.05 648.32 367.57 C 650.19 366.26 651.20 364.23 652.11 362.21 C 650.63 362.29 649.17 362.46 647.75 362.82 C 647.62 364.55 647.36 366.29 646.26 367.71 C 645.70 367.30 644.58 366.48 644.02 366.07 C 642.06 367.76 640.35 369.76 640.68 372.55 C 642.89 370.97 644.97 368.88 647.81 368.53 C 647.72 372.36 644.03 374.56 640.92 375.94 C 639.86 374.54 638.75 373.17 637.71 371.77 C 636.18 373.05 635.01 374.63 634.21 376.45 C 633.38 378.64 630.38 377.66 628.67 378.72 C 627.70 381.13 629.48 383.29 630.45 385.36 C 631.38 385.75 632.32 386.16 633.26 386.59 C 633.50 387.13 633.98 388.22 634.23 388.76 C 633.47 389.93 633.53 391.11 634.40 392.29 C 632.73 394.94 630.83 397.85 627.52 398.53 C 625.67 398.60 623.81 398.58 622.03 398.06 C 621.68 398.44 620.99 399.19 620.65 399.56 C 620.05 399.60 618.84 399.69 618.24 399.73 C 617.28 400.32 616.31 400.89 615.33 401.43 C 613.87 400.70 612.24 400.42 610.68 400.10 C 610.51 399.56 610.17 398.48 610.00 397.94 C 608.59 398.32 607.17 398.68 605.75 398.98 C 604.74 399.61 603.74 400.24 602.74 400.88 C 602.71 399.87 602.66 397.86 602.64 396.85 C 603.54 395.65 604.40 394.42 605.26 393.19 C 605.23 392.27 605.15 390.43 605.12 389.51 C 605.73 389.86 606.96 390.56 607.57 390.91 C 606.44 387.28 608.70 383.30 606.59 379.96 C 604.94 379.64 604.43 378.19 603.96 376.83 C 603.55 376.50 602.72 375.83 602.30 375.50 C 601.44 375.50 599.72 375.52 598.86 375.53 C 596.06 377.90 594.21 381.20 591.32 383.44 C 587.23 381.28 584.90 376.61 580.45 375.22 C 580.10 374.92 579.41 374.34 579.06 374.04 C 575.06 372.82 570.96 371.77 566.74 372.28 C 563.21 374.69 558.56 373.69 554.98 371.91 C 553.78 371.06 552.51 370.27 550.98 370.57 C 550.57 371.77 550.28 373.01 550.11 374.27 C 546.81 378.22 543.83 383.02 538.35 384.09 C 537.45 382.50 536.48 380.96 535.58 379.38 C 534.53 378.84 533.50 378.32 532.47 377.79 C 530.57 374.55 527.00 373.25 523.37 373.75 C 521.56 370.79 518.30 369.18 515.34 367.59 C 514.67 365.78 514.48 363.86 514.38 361.95 C 514.17 361.21 513.74 359.73 513.53 358.99 C 511.28 358.19 508.78 358.24 506.69 357.04 C 505.02 354.90 503.09 353.02 500.93 351.38 C 499.77 353.50 498.05 355.23 496.17 356.71 C 493.81 355.17 491.50 353.55 488.73 352.82 C 488.76 353.72 488.82 355.53 488.85 356.43 C 489.97 356.11 491.10 355.75 492.22 355.40 C 492.19 356.13 492.13 357.61 492.10 358.34 C 490.76 359.77 489.49 361.32 489.20 363.33 C 488.06 362.99 487.07 362.41 486.23 361.58 C 485.69 362.25 485.15 362.92 484.61 363.59 C 484.61 364.31 484.62 365.75 484.62 366.47 C 483.74 366.42 481.97 366.30 481.09 366.24 C 479.65 365.38 478.02 365.47 476.51 366.06 C 473.89 366.82 470.49 366.98 469.68 370.19 C 468.22 368.74 467.34 366.91 466.82 364.95 C 465.28 364.70 463.79 364.30 462.37 363.70 C 461.42 362.81 460.44 361.95 459.46 361.12 C 458.38 359.34 456.22 357.49 454.14 359.03 C 452.50 361.15 451.39 363.63 449.97 365.91 C 446.76 363.63 443.08 362.50 439.13 363.12 C 437.90 361.52 436.70 359.90 435.61 358.20 C 435.93 356.34 436.36 354.50 436.63 352.63 C 436.09 352.23 435.01 351.42 434.47 351.01 C 434.63 347.93 436.82 345.68 438.46 343.27 C 438.88 343.07 439.72 342.67 440.14 342.47 C 441.62 339.31 442.89 335.90 445.51 333.46 C 445.53 332.40 445.56 331.34 445.60 330.29 C 448.85 326.63 452.17 322.63 452.73 317.58 C 452.33 315.51 453.49 313.89 454.84 312.46 C 454.60 311.31 454.33 310.16 454.00 309.04 C 453.33 303.38 452.70 297.68 453.19 291.98 C 454.69 290.02 457.73 290.13 459.43 288.27 C 459.84 286.44 460.32 284.33 462.26 283.53 C 461.86 282.70 461.47 281.88 461.08 281.05 C 463.37 280.11 466.20 279.41 465.76 276.30 C 466.96 274.49 467.98 272.59 469.01 270.68 C 470.06 271.07 471.12 271.46 472.20 271.84 C 472.72 271.49 473.77 270.80 474.29 270.45 C 475.42 268.87 476.74 267.43 478.08 266.01 C 477.65 265.17 477.22 264.33 476.81 263.48 C 478.27 263.42 479.73 263.37 481.19 263.33 C 481.52 262.77 482.17 261.65 482.50 261.10 C 484.64 260.60 486.72 259.34 487.46 257.15 C 488.21 255.17 490.48 254.74 492.16 253.88 C 492.67 255.37 494.06 256.72 495.54 255.40 C 497.49 253.91 498.38 251.55 499.60 249.50 C 499.58 248.29 499.57 247.08 499.57 245.87 C 501.15 245.87 502.74 245.87 504.33 245.87 C 504.84 247.14 505.35 248.39 505.87 249.65 C 507.06 249.15 508.14 248.46 509.11 247.61 C 506.86 246.88 506.34 244.56 506.12 242.55 C 504.17 238.50 502.22 234.43 500.92 230.13 Z" />
<path fill="#fefefe" d=" M 1005.15 246.90 C 1006.46 244.89 1008.51 243.60 1010.31 242.07 C 1012.02 242.44 1013.74 242.69 1015.50 242.92 C 1015.85 244.26 1016.31 245.59 1016.54 246.97 C 1015.65 249.02 1014.86 251.12 1015.65 253.36 C 1012.74 253.36 1009.84 253.35 1006.95 253.42 C 1006.47 251.21 1005.84 249.04 1005.15 246.90 Z" />
<path fill="#fefefe" d=" M 1003.93 260.32 C 1005.45 257.50 1008.81 258.91 1011.22 257.65 C 1011.35 258.40 1011.49 259.16 1011.66 259.91 C 1013.51 259.38 1014.77 260.97 1016.19 261.81 C 1015.71 262.28 1014.76 263.23 1014.28 263.70 C 1015.67 265.43 1017.09 267.46 1016.63 269.82 C 1015.98 270.35 1014.68 271.40 1014.03 271.92 L 1015.55 273.09 C 1014.75 275.55 1015.11 279.08 1012.15 280.11 C 1010.82 281.13 1009.49 282.14 1008.18 283.16 C 1006.94 282.41 1005.63 281.66 1004.40 280.96 C 1004.52 283.08 1004.69 285.21 1004.61 287.35 C 1000.62 288.23 997.62 291.15 993.91 292.67 C 991.63 291.94 989.49 292.68 987.56 293.90 C 986.92 292.26 986.50 290.56 986.10 288.86 C 987.75 287.50 988.05 285.31 989.06 283.53 C 989.77 281.57 991.08 280.04 993.00 279.18 C 993.78 277.51 994.87 276.01 996.03 274.58 C 995.17 272.22 993.06 271.00 990.76 270.36 C 991.22 268.71 991.67 267.05 992.11 265.40 C 994.95 265.65 995.07 268.52 995.77 270.68 C 997.71 270.69 999.64 270.63 1001.60 270.58 C 1002.76 267.63 1001.63 264.62 1001.48 261.61 C 1002.28 261.18 1003.10 260.75 1003.93 260.32 Z" />
<path fill="#050505" d=" M 203.01 281.81 C 205.06 281.39 207.03 280.71 209.07 280.26 C 210.31 281.30 211.30 282.60 212.36 283.82 C 212.45 286.62 212.91 289.51 211.95 292.23 C 212.53 294.48 214.33 296.74 213.32 299.12 C 212.41 299.74 211.47 300.31 210.50 300.82 L 210.41 301.19 C 208.77 301.45 207.15 301.84 205.68 302.61 C 203.99 302.56 202.43 301.89 200.89 301.27 C 200.53 300.24 200.18 299.22 199.82 298.20 C 199.21 296.40 198.41 294.62 196.82 293.47 C 198.08 289.16 200.86 285.65 203.01 281.81 Z" />
<path fill="#050505" d=" M 216.70 328.62 C 217.88 328.18 219.06 327.71 220.24 327.26 C 220.50 328.94 220.84 330.60 221.32 332.24 C 222.51 332.96 223.67 333.74 224.82 334.55 C 228.82 334.48 232.83 334.97 236.76 333.93 C 239.71 335.84 243.22 333.97 246.08 336.04 C 246.89 337.39 247.43 338.89 248.18 340.28 C 247.00 342.34 248.58 343.76 250.27 344.69 C 249.75 345.72 249.25 346.75 248.77 347.81 C 247.69 347.44 246.63 347.07 245.58 346.68 C 245.20 347.45 244.82 348.23 244.44 349.01 C 244.70 349.18 245.22 349.52 245.48 349.69 C 242.38 352.41 240.71 356.44 240.21 360.47 C 239.82 360.56 239.04 360.73 238.65 360.82 C 239.01 361.96 239.05 363.13 238.79 364.33 C 239.75 365.11 240.83 365.74 241.87 366.41 C 242.44 366.42 243.58 366.43 244.15 366.43 C 244.99 367.49 245.88 368.50 246.83 369.48 C 247.33 371.42 246.37 372.72 244.72 373.58 L 244.19 371.61 C 243.15 372.78 242.23 374.04 241.32 375.31 C 242.65 377.62 244.72 375.57 246.41 375.07 L 244.88 373.52 C 245.71 373.63 247.35 373.84 248.17 373.95 C 249.45 372.43 250.49 370.74 251.52 369.05 C 251.65 369.73 251.90 371.08 252.03 371.75 C 252.73 371.72 254.13 371.66 254.83 371.63 C 254.78 372.09 254.68 373.01 254.63 373.47 C 255.58 375.55 256.08 378.04 258.25 379.25 C 258.41 379.80 258.74 380.91 258.91 381.46 C 259.66 381.27 261.18 380.89 261.93 380.70 C 261.86 379.35 261.81 378.00 261.76 376.66 C 262.40 376.64 263.68 376.59 264.32 376.57 C 264.87 376.25 265.97 375.61 266.52 375.29 C 270.27 367.84 267.66 359.60 266.40 351.92 C 266.59 349.64 266.62 347.35 266.99 345.09 C 266.84 343.66 266.68 342.22 266.52 340.80 C 266.09 340.55 265.23 340.05 264.80 339.80 C 264.55 339.03 264.07 337.49 263.82 336.72 C 264.77 336.18 265.72 335.64 266.67 335.11 C 266.67 333.92 266.67 332.74 266.67 331.56 C 269.80 330.87 273.07 330.51 275.96 329.03 C 278.15 328.30 281.02 327.43 282.95 329.22 C 285.68 331.76 288.99 333.72 290.83 337.08 C 293.34 338.02 295.71 339.31 297.65 341.20 C 300.37 340.37 303.36 340.03 305.85 341.70 C 307.88 339.46 310.80 340.25 313.07 341.57 C 314.07 341.58 315.08 341.59 316.09 341.60 C 316.84 340.31 318.18 339.72 319.47 339.12 C 321.71 339.89 324.74 339.68 326.01 342.11 C 326.98 343.49 328.78 343.86 329.99 344.99 C 330.89 347.64 331.62 350.54 334.12 352.19 C 334.19 352.90 334.34 354.33 334.42 355.05 C 334.74 355.45 335.39 356.26 335.71 356.67 C 337.74 356.06 339.76 355.41 341.83 354.94 C 341.45 356.00 341.06 357.06 340.66 358.11 C 341.07 358.65 341.87 359.74 342.28 360.28 C 341.40 360.33 339.64 360.41 338.76 360.46 C 339.94 362.77 343.22 361.60 344.02 359.56 C 344.26 359.65 344.75 359.84 344.99 359.93 C 344.78 361.82 344.54 363.74 343.66 365.47 C 343.88 366.70 344.13 367.91 344.40 369.14 C 345.83 369.93 346.51 371.28 346.56 372.87 C 347.99 373.64 349.16 375.74 351.03 375.05 C 353.75 374.08 356.12 377.88 358.66 375.73 C 358.91 376.05 359.39 376.69 359.64 377.01 C 362.32 377.09 364.75 378.26 367.02 379.58 C 368.04 382.20 371.06 382.86 372.92 384.72 C 372.64 386.52 372.48 388.34 372.30 390.16 C 372.95 390.35 374.24 390.72 374.89 390.90 C 377.54 392.21 380.18 393.56 382.88 394.78 C 383.68 397.21 385.39 399.07 387.50 400.45 C 389.05 401.10 388.95 402.71 388.56 404.09 C 389.95 406.25 390.81 409.00 393.27 410.21 C 396.03 411.17 396.25 414.33 397.68 416.49 C 399.20 418.53 399.93 420.99 400.81 423.35 C 401.25 423.68 402.12 424.34 402.55 424.67 C 402.43 425.48 402.19 427.08 402.07 427.89 C 400.46 433.33 401.84 439.90 397.77 444.46 C 396.18 446.05 396.43 448.31 396.42 450.36 C 397.16 451.19 397.89 452.04 398.62 452.90 C 398.22 453.26 397.43 453.98 397.03 454.34 C 396.04 454.06 394.05 453.51 393.06 453.23 C 392.15 456.85 395.82 458.70 398.65 459.67 C 399.71 461.02 400.77 462.37 401.71 463.81 C 404.50 465.46 404.50 469.04 406.52 471.33 C 407.67 472.62 408.22 474.24 408.60 475.92 C 411.26 480.39 409.68 486.44 406.09 489.98 C 404.35 490.63 402.78 491.64 401.76 493.24 C 401.25 493.32 400.21 493.50 399.70 493.58 C 399.38 493.94 398.74 494.67 398.42 495.03 C 398.36 495.72 398.24 497.10 398.18 497.78 C 397.60 499.11 397.44 500.49 397.68 501.92 C 398.38 504.54 399.85 506.83 400.99 509.27 C 401.80 509.68 402.62 510.09 403.45 510.51 C 403.65 511.80 403.83 513.09 403.99 514.40 C 403.29 514.50 401.88 514.69 401.18 514.79 C 401.08 511.89 398.67 512.38 396.66 512.45 C 396.69 513.00 396.74 514.10 396.76 514.65 C 395.89 515.76 395.08 516.92 394.29 518.10 C 394.44 518.64 394.75 519.73 394.90 520.28 C 395.43 520.54 396.49 521.07 397.01 521.34 C 397.95 523.41 399.56 524.82 401.98 524.57 C 402.31 527.42 405.38 527.62 407.65 527.62 C 408.46 529.37 409.23 531.15 410.05 532.91 C 410.85 533.53 411.65 534.16 412.47 534.79 C 412.19 535.82 411.94 536.86 411.70 537.90 C 411.90 537.60 412.30 536.99 412.50 536.68 C 415.18 536.09 417.92 535.94 420.63 535.51 C 421.57 532.99 422.92 530.73 425.15 529.15 C 426.83 526.29 429.79 524.53 431.93 522.04 C 432.41 521.78 433.38 521.27 433.87 521.01 C 435.71 519.51 438.07 519.81 440.25 520.25 C 442.48 519.25 444.69 518.22 446.98 517.36 C 448.37 515.97 449.68 514.50 450.99 513.04 C 453.11 512.12 455.03 510.82 456.89 509.47 C 459.04 509.65 461.21 509.53 463.36 509.29 C 463.51 508.96 463.82 508.30 463.97 507.97 C 466.02 507.26 467.52 505.65 468.91 504.06 C 469.59 502.92 470.26 501.76 470.89 500.59 C 472.03 500.00 473.19 499.42 474.37 498.91 C 475.03 497.40 475.66 495.88 476.31 494.38 C 477.30 495.03 478.30 495.70 479.30 496.38 C 479.70 493.21 480.31 490.05 481.30 487.01 C 478.16 481.47 477.17 473.98 481.92 469.05 C 483.25 469.18 484.56 469.43 485.86 469.79 C 486.99 471.02 488.20 472.58 490.05 472.60 C 494.35 473.06 498.14 470.39 502.36 470.30 C 502.70 469.86 503.36 468.97 503.70 468.53 C 505.38 468.51 507.07 468.39 508.76 468.23 C 511.22 466.38 514.26 465.66 517.05 464.47 C 517.79 464.42 519.28 464.33 520.03 464.28 C 520.52 463.99 521.51 463.40 522.01 463.10 C 522.83 462.38 523.66 461.67 524.50 460.96 C 524.45 460.39 524.36 459.24 524.31 458.67 C 524.91 458.39 526.11 457.85 526.72 457.58 C 527.69 455.29 528.68 453.00 529.69 450.73 C 530.51 450.14 531.34 449.55 532.16 448.96 C 534.02 448.21 536.02 448.51 537.97 448.52 C 538.67 446.54 540.01 444.93 541.63 443.63 C 543.05 443.52 544.46 443.37 545.89 443.22 C 546.29 442.88 547.10 442.20 547.50 441.86 C 550.13 441.35 551.84 439.13 553.89 437.61 C 556.61 437.34 559.39 437.67 562.07 437.06 C 563.29 437.11 564.50 437.25 565.71 437.47 C 566.47 438.73 566.99 440.11 567.61 441.45 C 567.02 441.91 565.84 442.84 565.25 443.31 C 566.94 444.31 568.63 445.50 570.61 445.91 C 571.80 445.36 572.93 444.67 574.08 444.03 C 573.65 442.99 573.21 441.96 572.74 440.96 C 572.26 438.86 571.98 436.72 572.25 434.59 C 571.14 431.95 572.40 429.42 574.58 427.86 C 577.52 429.04 580.60 427.08 583.67 427.35 C 585.67 429.18 586.36 431.71 586.69 434.32 C 590.11 435.12 593.16 436.80 596.44 437.97 C 597.14 438.49 597.85 439.02 598.57 439.57 C 597.88 442.64 602.59 447.48 605.13 444.69 C 605.46 445.50 605.77 446.29 606.13 447.11 C 605.39 447.69 604.65 448.27 603.92 448.85 C 604.85 449.37 605.77 449.92 606.68 450.50 C 606.71 452.06 605.67 453.43 605.18 454.89 C 606.47 456.85 607.54 458.95 608.59 461.07 C 608.27 461.70 607.96 462.33 607.65 462.97 C 607.67 463.72 607.70 465.20 607.72 465.95 C 609.03 467.46 610.04 469.37 608.68 471.21 C 609.08 471.39 609.86 471.73 610.26 471.91 C 610.16 475.05 610.19 478.19 610.21 481.35 C 609.48 481.23 608.03 481.01 607.30 480.89 C 605.34 481.92 602.82 481.47 601.16 483.08 C 598.52 483.32 595.90 483.67 593.26 483.80 C 591.71 486.41 588.53 486.75 585.80 486.35 C 585.22 485.73 584.65 485.11 584.08 484.50 C 580.76 484.39 577.38 484.17 574.70 486.49 C 573.18 489.37 570.92 491.83 569.90 494.98 C 568.82 496.12 567.74 497.29 566.68 498.46 C 565.42 501.17 562.17 502.12 560.94 504.80 C 559.90 507.02 558.35 508.93 556.58 510.62 C 555.75 512.31 554.78 513.97 553.28 515.17 C 550.86 516.65 548.84 519.01 545.75 518.90 C 547.61 516.67 548.39 513.86 548.56 511.01 C 543.17 506.63 535.84 511.43 529.91 508.79 C 528.19 508.44 526.49 508.06 524.82 507.54 C 522.78 509.52 519.83 510.88 518.90 513.75 C 518.68 513.83 518.22 513.99 517.99 514.08 C 516.91 511.94 515.19 510.78 512.76 511.29 C 513.23 513.38 513.68 515.48 513.98 517.62 C 516.76 518.23 518.63 516.14 520.37 514.34 C 520.22 515.53 519.91 517.92 519.75 519.11 C 520.21 518.60 521.11 517.59 521.56 517.08 L 521.97 519.03 C 523.43 518.68 524.94 518.39 526.28 517.65 C 528.00 518.15 529.73 518.47 531.36 517.42 C 532.90 518.57 534.35 519.89 535.44 521.50 C 535.88 524.23 535.78 527.02 534.41 529.48 C 533.66 530.16 532.93 530.87 532.21 531.59 L 531.44 531.29 C 530.53 533.33 530.44 535.53 530.46 537.73 C 529.35 538.26 528.20 538.67 527.00 538.96 C 525.67 536.22 522.36 535.65 520.59 533.29 C 520.52 533.74 520.38 534.63 520.31 535.08 C 519.37 534.80 518.45 534.52 517.53 534.26 C 515.67 537.72 512.33 539.76 509.82 542.65 C 506.43 542.52 502.95 541.38 499.74 543.01 C 499.31 544.04 498.46 545.15 497.62 543.80 C 495.67 543.48 493.65 543.44 491.85 542.55 C 489.21 542.70 486.11 541.66 483.88 543.54 C 483.25 543.21 482.64 542.89 482.03 542.57 C 481.28 542.64 479.77 542.77 479.01 542.84 C 477.21 543.94 475.01 541.57 473.59 543.53 C 471.56 545.36 468.95 546.36 466.74 547.94 C 468.64 548.69 470.72 549.16 472.39 550.42 C 471.46 551.21 470.66 552.15 470.04 553.21 C 470.71 553.93 471.39 554.66 472.06 555.40 C 472.03 557.32 472.49 559.18 473.83 560.62 C 473.74 564.37 473.66 568.12 474.12 571.86 C 473.64 574.15 472.38 576.23 470.84 577.98 C 470.37 578.75 469.91 579.54 469.46 580.34 C 464.45 583.23 463.05 589.46 458.23 592.64 C 457.63 592.58 456.43 592.47 455.83 592.42 C 454.67 593.47 453.35 594.42 451.70 594.39 C 448.86 594.62 446.47 596.38 443.74 597.05 C 442.49 597.60 441.18 597.40 439.96 596.92 C 436.24 596.57 432.53 596.37 428.93 595.32 C 427.15 593.93 425.31 592.62 423.40 591.44 C 421.47 591.23 419.48 591.37 417.66 590.57 C 417.15 589.62 416.64 588.68 416.13 587.74 C 414.40 587.05 412.64 586.41 410.78 586.25 C 410.76 587.08 410.72 588.73 410.69 589.56 C 409.32 590.58 407.97 591.64 406.59 592.67 C 404.77 595.87 404.90 599.58 404.17 603.09 C 402.67 602.74 401.17 602.44 399.66 602.21 C 398.78 604.13 397.91 606.06 397.06 607.99 C 394.78 609.78 393.89 612.57 394.00 615.40 C 393.50 615.49 392.50 615.66 391.99 615.75 C 390.37 616.73 388.70 617.63 387.10 618.64 C 385.98 617.11 384.75 615.69 383.51 614.27 C 382.48 614.75 381.45 615.24 380.43 615.72 C 379.82 615.00 379.22 614.29 378.63 613.59 C 377.08 610.79 373.58 609.95 371.86 607.23 C 370.80 607.61 369.74 607.99 368.69 608.38 C 368.21 609.31 367.74 610.24 367.26 611.18 C 365.89 611.71 364.58 612.37 363.35 613.18 C 362.23 613.03 361.10 612.87 359.98 612.75 C 359.76 612.35 359.33 611.54 359.11 611.14 C 358.69 608.33 356.64 606.04 353.69 605.97 C 354.73 605.14 355.85 604.44 357.02 603.79 C 358.23 602.05 359.59 600.42 360.99 598.84 C 362.94 599.59 364.75 600.64 366.12 602.25 C 367.63 601.61 369.17 601.03 370.70 600.45 C 370.53 594.76 372.45 589.41 374.94 584.39 C 374.31 582.83 373.70 581.27 373.11 579.71 C 372.67 579.39 371.78 578.77 371.34 578.45 C 373.59 573.04 374.76 567.31 374.73 561.45 C 373.35 561.85 371.96 562.26 370.58 562.67 C 370.00 560.94 369.53 559.18 369.07 557.43 C 367.57 557.50 366.08 557.59 364.59 557.70 C 364.75 559.17 364.84 560.64 364.84 562.13 C 363.57 563.56 361.76 564.33 360.23 565.44 C 359.64 565.68 358.45 566.17 357.86 566.41 C 356.14 565.58 354.41 564.77 352.68 563.97 C 351.84 561.92 351.54 559.15 348.83 558.87 C 347.78 558.38 346.74 557.87 345.69 557.41 C 343.96 556.29 342.16 554.96 341.46 552.94 C 340.08 550.38 341.54 547.57 341.77 544.91 C 342.66 541.18 344.12 537.36 343.43 533.46 C 342.84 531.25 342.23 529.04 341.58 526.85 C 341.86 526.26 342.41 525.09 342.69 524.50 C 344.12 524.01 345.54 523.51 346.99 523.05 C 351.77 519.95 356.71 517.09 362.09 515.15 C 361.58 513.85 360.83 512.71 359.42 512.33 C 358.62 510.42 357.87 508.50 357.23 506.54 C 361.73 508.46 366.64 506.95 371.35 507.48 C 372.51 506.20 373.97 504.92 373.38 503.00 C 372.78 500.10 373.76 497.38 375.03 494.83 C 373.44 493.40 371.61 492.29 369.70 491.36 C 368.07 492.30 366.44 493.23 364.74 494.02 C 362.71 492.26 362.04 490.14 363.51 487.78 C 364.88 487.23 366.24 486.68 367.63 486.16 C 368.35 481.87 363.72 480.62 360.80 478.92 C 360.25 477.89 359.71 476.88 359.19 475.87 C 357.97 475.29 356.76 474.71 355.56 474.12 C 353.52 475.88 351.33 477.56 348.49 477.48 C 343.96 475.20 338.66 476.11 333.87 474.73 C 332.78 475.27 331.70 475.82 330.63 476.38 C 329.39 473.68 328.40 470.86 326.84 468.33 C 327.62 466.73 327.66 464.96 327.63 463.23 C 326.30 463.25 324.98 463.29 323.67 463.35 C 321.73 461.02 318.27 461.91 316.30 459.72 C 314.41 458.45 312.42 457.33 310.33 456.42 C 310.19 456.03 309.89 455.24 309.75 454.84 C 306.78 452.91 304.47 449.96 300.95 448.97 C 299.89 447.65 298.85 446.32 297.76 445.04 C 297.63 444.49 297.37 443.41 297.24 442.86 C 295.20 441.78 293.22 440.60 291.35 439.25 C 291.25 436.27 290.97 432.54 287.78 431.23 C 284.19 429.70 281.88 426.45 278.99 423.98 C 277.80 423.68 276.64 423.30 275.69 422.51 C 276.63 420.34 276.15 417.30 278.52 416.02 C 278.44 415.75 278.29 415.22 278.21 414.95 C 276.85 411.91 278.90 408.65 277.80 405.49 C 277.91 401.28 276.66 397.27 275.54 393.27 C 273.07 389.32 267.73 389.74 263.85 388.14 C 263.79 390.62 263.64 393.26 261.33 394.73 C 261.33 395.44 261.33 396.85 261.33 397.56 C 259.34 397.19 257.46 396.43 255.60 395.68 C 255.46 398.08 252.97 397.18 251.38 397.59 C 250.29 398.87 249.43 400.34 248.38 401.66 C 245.70 400.99 243.04 400.22 240.43 399.30 C 240.50 399.55 240.63 400.04 240.70 400.28 C 239.00 398.85 237.01 398.35 234.93 399.27 C 234.25 398.95 233.56 398.63 232.88 398.32 C 232.26 396.44 231.65 394.56 230.93 392.73 C 228.30 393.42 226.87 391.84 226.17 389.55 C 224.16 389.64 222.16 389.72 220.17 389.79 C 219.33 390.77 218.40 391.66 217.41 392.49 C 214.79 391.99 212.20 391.20 210.28 389.24 C 211.68 386.76 212.36 383.35 210.34 381.02 C 207.18 377.73 202.77 376.17 198.90 373.92 C 197.94 368.66 195.72 363.75 194.56 358.54 C 194.05 358.23 193.03 357.60 192.51 357.29 C 192.45 355.65 192.39 354.02 192.34 352.39 C 192.60 350.94 192.82 349.49 193.01 348.04 C 195.83 347.03 196.57 343.96 198.57 342.04 L 198.74 341.22 C 200.18 341.94 201.62 342.66 203.06 343.40 C 203.68 342.84 204.31 342.30 204.94 341.76 C 205.67 341.72 207.15 341.65 207.88 341.61 C 208.14 341.83 208.66 342.25 208.92 342.46 C 210.16 342.48 211.41 342.51 212.66 342.57 C 213.53 341.67 214.42 340.81 215.34 339.97 C 214.95 339.08 214.57 338.20 214.20 337.32 C 215.18 337.42 217.15 337.63 218.13 337.73 C 218.69 337.03 219.25 336.33 219.80 335.62 C 220.04 335.43 220.51 335.05 220.75 334.86 C 218.38 333.51 215.90 332.35 213.21 331.83 C 214.35 330.74 215.53 329.68 216.70 328.62 Z" />
<path fill="#050505" d=" M 940.38 339.01 C 941.12 337.56 942.19 336.40 943.88 336.15 C 943.14 337.73 942.26 339.24 941.50 340.82 C 943.30 340.75 944.80 339.85 946.17 338.75 C 946.62 339.21 947.53 340.14 947.99 340.60 C 948.60 340.60 949.84 340.60 950.45 340.60 C 951.21 342.92 950.83 345.31 950.01 347.56 C 953.14 349.27 956.24 351.05 959.35 352.81 C 960.78 354.32 961.05 356.57 961.92 358.42 C 958.95 360.61 956.36 363.19 953.97 365.99 C 951.89 366.87 950.13 368.31 948.83 370.14 C 948.14 370.68 947.47 371.23 946.81 371.78 C 946.80 374.03 946.79 376.28 946.75 378.54 C 947.76 379.27 948.77 379.98 949.83 380.68 C 951.26 382.96 951.07 385.72 950.84 388.28 C 950.64 389.78 948.69 389.41 947.74 389.87 C 946.81 391.01 945.96 392.21 945.15 393.43 C 945.16 394.80 945.17 396.17 945.19 397.55 C 946.09 398.06 947.01 398.58 947.93 399.12 C 947.29 400.41 946.64 401.69 945.99 402.98 C 946.87 405.25 947.02 407.70 946.11 409.99 C 946.57 411.47 946.91 413.02 946.43 414.55 C 945.67 417.04 946.68 419.53 946.98 422.00 C 945.50 422.74 943.98 423.41 942.40 423.86 C 939.11 425.00 937.35 428.07 936.02 431.06 C 932.11 431.07 928.60 433.06 924.69 433.09 C 918.66 435.08 912.04 434.50 906.22 437.31 C 905.50 438.03 904.79 438.76 904.10 439.50 C 903.36 439.50 901.88 439.50 901.15 439.50 C 901.12 440.52 901.11 441.55 901.11 442.59 C 903.09 442.75 905.07 443.12 906.97 443.78 C 907.88 445.58 908.88 447.35 909.91 449.10 C 910.58 450.85 911.38 452.56 912.26 454.23 C 914.78 455.98 917.11 457.98 919.57 459.82 C 918.07 461.75 918.42 463.79 920.61 464.81 C 921.89 466.69 924.18 468.05 924.56 470.42 C 921.51 471.83 918.58 473.84 917.90 477.37 C 917.16 480.09 916.18 482.73 915.24 485.39 C 917.17 485.05 920.13 483.07 921.11 485.82 C 921.59 487.62 920.22 488.91 919.22 490.18 C 919.94 491.04 920.66 491.91 921.40 492.79 C 919.51 494.68 917.54 496.47 915.48 498.17 C 912.03 498.58 912.67 502.06 912.67 504.62 C 909.67 506.06 908.59 509.37 906.56 511.76 C 904.82 512.20 903.76 510.61 902.61 509.66 C 902.67 508.25 902.72 506.85 902.79 505.46 C 900.35 503.80 898.31 501.75 897.43 498.87 C 898.08 497.99 898.74 497.13 899.43 496.29 C 899.43 494.53 899.42 492.77 899.43 491.02 C 899.05 491.04 898.30 491.07 897.92 491.08 C 897.74 492.38 897.55 493.68 897.34 494.98 C 896.27 494.56 895.18 494.36 894.08 494.39 C 892.84 495.81 892.00 497.73 889.89 497.98 C 889.45 498.26 888.56 498.82 888.12 499.09 C 888.26 499.69 888.54 500.87 888.69 501.47 C 889.61 502.38 890.55 503.30 891.50 504.22 C 893.71 504.01 895.74 504.60 897.27 506.31 C 896.24 506.97 895.20 507.61 894.16 508.23 C 891.51 508.69 889.40 510.43 887.26 511.90 C 888.21 513.17 889.27 514.38 890.21 515.69 C 890.77 517.30 889.87 518.89 889.56 520.45 C 888.58 520.97 887.62 521.50 886.68 522.04 C 884.36 521.02 883.49 518.52 882.25 516.53 C 880.80 516.76 879.36 517.04 877.95 517.35 L 877.29 516.67 C 875.76 517.72 874.09 517.74 872.60 516.66 L 871.14 517.80 C 870.72 516.52 870.33 515.22 869.99 513.93 C 867.23 511.85 864.12 513.67 861.05 513.49 C 858.24 513.74 855.66 512.61 853.08 511.72 C 850.77 513.00 847.39 512.78 846.02 515.38 C 845.35 516.87 843.73 516.76 842.36 516.81 C 841.56 517.76 840.79 518.73 840.04 519.71 C 837.08 519.83 837.11 522.44 837.21 524.73 C 838.66 525.51 840.76 525.93 840.76 528.01 C 842.90 528.18 843.69 530.00 844.57 531.66 C 847.25 533.42 850.76 533.98 852.76 536.67 C 853.00 536.68 853.49 536.68 853.73 536.69 C 853.72 537.17 853.69 538.12 853.68 538.60 C 852.11 540.70 850.31 542.81 850.08 545.54 C 850.60 545.63 851.65 545.80 852.18 545.88 C 851.76 547.17 851.37 548.48 851.02 549.79 C 848.98 549.77 847.01 550.15 845.56 551.68 C 843.54 550.79 841.45 549.39 839.14 550.06 C 837.94 551.10 837.78 552.86 836.95 554.17 C 836.24 554.04 834.81 553.79 834.10 553.66 C 832.81 554.07 831.54 554.50 830.29 554.96 C 829.58 554.55 828.15 553.73 827.44 553.32 C 825.89 555.43 825.22 557.89 825.15 560.49 C 822.26 560.09 818.77 558.89 816.58 561.54 C 814.50 561.59 812.42 561.62 810.36 561.72 C 811.64 557.50 806.87 558.40 804.34 558.45 C 803.39 559.19 802.49 560.00 801.64 560.85 C 799.29 560.82 796.99 560.41 794.74 559.82 C 794.67 559.41 794.54 558.57 794.47 558.15 C 791.78 559.17 788.38 558.38 786.26 560.57 C 785.13 559.74 784.04 558.91 782.96 558.07 C 782.26 558.72 781.57 559.38 780.89 560.05 C 780.03 559.68 779.17 559.33 778.32 558.99 C 777.60 557.33 776.57 555.76 776.28 553.96 C 776.90 551.90 778.47 550.30 779.70 548.57 C 779.69 547.25 779.68 545.94 779.68 544.63 C 778.71 543.46 777.79 542.27 776.85 541.10 C 775.62 539.72 774.34 538.38 773.07 537.06 C 772.66 533.69 773.45 530.34 776.02 528.00 C 776.58 525.92 778.36 524.61 779.46 522.87 C 780.10 521.32 780.52 519.70 780.96 518.10 C 782.55 514.22 780.40 510.77 778.96 507.32 C 778.71 502.23 778.94 497.13 778.87 492.04 C 779.44 491.83 780.58 491.40 781.15 491.18 C 782.64 487.24 783.62 483.11 784.00 478.91 C 784.74 478.10 785.50 477.30 786.27 476.50 C 786.60 474.94 787.01 473.40 787.41 471.87 C 787.97 471.86 789.09 471.84 789.65 471.83 C 789.69 471.12 789.77 469.69 789.81 468.98 C 790.44 469.40 791.70 470.24 792.33 470.66 C 795.26 470.27 798.17 469.75 801.09 469.22 C 801.82 468.45 802.56 467.68 803.32 466.92 C 802.61 466.19 801.92 465.46 801.24 464.75 C 800.72 464.46 799.67 463.88 799.15 463.58 C 798.03 463.57 796.92 463.57 795.82 463.58 C 795.37 463.09 794.47 462.11 794.01 461.63 C 792.40 462.86 790.76 464.05 789.16 465.29 C 788.39 465.27 786.84 465.25 786.07 465.24 C 785.10 463.11 783.37 461.67 780.89 462.05 C 780.75 461.44 780.48 460.24 780.34 459.64 C 779.35 458.66 778.37 457.70 777.37 456.76 C 774.62 458.03 771.58 457.74 768.66 457.77 C 767.66 458.51 766.66 459.24 765.66 459.96 C 765.59 461.25 765.55 462.55 765.50 463.85 C 763.76 466.28 763.34 469.34 762.05 472.00 C 760.48 472.79 758.92 473.58 757.38 474.41 C 756.70 474.41 755.34 474.43 754.66 474.44 C 750.56 477.30 745.01 475.81 741.14 479.01 C 739.52 480.28 737.68 481.17 735.74 481.80 C 733.81 480.47 732.01 481.52 730.52 482.88 C 729.34 483.68 728.38 484.72 727.75 486.00 C 726.61 486.78 725.48 487.55 724.38 488.36 C 722.75 488.49 721.14 488.69 719.61 489.23 C 718.78 490.54 717.86 491.79 716.94 493.04 C 715.10 492.05 713.43 490.82 711.92 489.39 C 710.03 489.36 708.15 489.35 706.28 489.34 C 704.96 488.01 703.58 486.48 701.53 486.73 C 701.56 487.40 701.61 488.72 701.64 489.38 C 702.49 489.35 704.19 489.28 705.04 489.25 C 703.55 491.11 702.98 493.44 702.12 495.62 C 701.56 495.24 700.43 494.47 699.86 494.09 C 699.04 494.86 698.22 495.63 697.40 496.41 C 696.20 494.94 695.10 493.41 693.92 491.94 C 692.26 491.58 690.63 491.14 689.00 490.72 C 689.10 487.87 689.75 485.09 690.03 482.26 C 689.69 481.89 688.99 481.15 688.64 480.78 C 687.88 477.06 683.55 479.05 681.02 479.42 C 679.42 479.76 678.57 478.22 677.43 477.50 C 677.45 476.83 677.49 475.47 677.50 474.79 C 675.76 473.03 673.59 471.43 672.96 468.91 C 672.50 468.61 671.59 468.00 671.13 467.69 C 669.44 467.70 667.76 467.72 666.09 467.74 C 664.89 466.26 663.78 464.73 662.65 463.22 C 662.51 461.29 662.62 459.15 661.14 457.67 C 659.70 456.63 658.06 455.94 656.51 455.11 C 656.08 452.55 657.79 450.44 660.28 450.04 C 661.18 449.58 662.09 449.11 662.99 448.64 C 664.64 448.61 666.30 448.60 667.96 448.60 C 668.72 447.86 669.49 447.14 670.27 446.43 C 671.56 448.51 672.26 451.01 670.75 453.21 C 670.98 453.69 671.46 454.66 671.69 455.14 C 672.43 455.25 673.89 455.47 674.63 455.59 C 673.41 457.06 672.31 458.65 672.26 460.64 C 672.72 460.99 673.62 461.69 674.07 462.05 C 675.50 459.84 676.52 457.24 674.92 454.81 C 676.08 454.37 677.25 453.92 678.41 453.45 C 679.05 454.04 679.71 454.64 680.37 455.26 C 680.78 455.28 681.61 455.32 682.02 455.34 C 682.77 456.46 683.58 457.55 684.40 458.64 C 685.27 458.61 687.00 458.55 687.87 458.51 C 690.07 456.96 692.02 454.82 694.74 454.22 C 695.88 453.04 696.97 451.83 697.95 450.52 C 703.97 450.02 708.98 446.03 713.85 442.82 C 716.23 442.77 718.62 442.76 721.02 442.74 C 722.67 441.51 724.39 440.37 726.03 439.10 C 726.80 438.14 727.56 437.15 728.49 436.31 C 730.24 436.08 732.02 436.19 733.79 436.20 C 734.71 434.94 735.63 433.67 736.53 432.39 C 736.54 429.36 736.22 426.29 736.91 423.31 C 738.44 421.30 739.32 417.53 736.43 416.27 C 737.78 414.05 736.94 411.35 738.01 409.06 C 738.84 407.40 738.98 405.55 739.17 403.74 C 739.90 403.73 741.37 403.72 742.11 403.71 C 742.45 404.22 743.13 405.26 743.47 405.78 C 744.01 403.03 744.71 399.50 747.90 398.73 C 749.39 398.42 749.85 397.05 750.05 395.71 C 752.43 396.56 754.89 394.67 757.18 396.14 C 758.53 396.23 759.89 396.30 761.27 396.36 C 761.58 398.55 762.09 400.72 762.46 402.92 C 761.51 402.91 759.62 402.89 758.67 402.87 C 757.82 403.64 756.99 404.41 756.16 405.18 C 757.90 407.59 759.68 411.26 763.02 411.33 C 764.56 409.04 763.66 406.13 763.92 403.56 C 769.26 404.19 773.72 407.09 778.21 409.80 C 778.73 409.27 779.78 408.21 780.31 407.69 C 780.80 407.98 781.77 408.56 782.26 408.86 C 782.25 410.03 782.26 411.20 782.27 412.39 C 784.50 414.90 786.59 417.55 789.18 419.72 C 788.41 421.51 787.73 423.33 787.02 425.14 C 789.84 427.43 793.61 427.59 796.71 425.75 C 797.24 423.92 799.62 421.26 796.26 420.64 C 796.61 417.40 797.28 414.20 797.42 410.94 C 798.23 411.33 799.05 411.73 799.87 412.14 C 801.13 411.74 802.41 411.38 803.71 411.07 C 804.23 409.63 804.59 408.15 804.83 406.65 C 805.43 405.64 806.05 404.64 806.69 403.65 C 805.10 402.68 803.54 401.66 801.82 400.96 C 799.93 399.51 797.40 398.47 796.70 395.99 C 796.57 396.53 796.30 397.63 796.17 398.17 C 794.60 398.10 790.65 397.51 792.51 395.06 C 792.78 394.63 793.33 393.78 793.60 393.36 C 790.83 391.38 793.49 388.97 794.88 387.08 C 794.33 385.74 793.75 384.42 793.15 383.12 C 792.34 383.06 790.72 382.96 789.91 382.90 C 788.60 381.13 788.10 379.21 789.59 377.33 C 789.62 376.33 789.65 375.34 789.69 374.36 C 790.74 373.67 791.79 372.98 792.85 372.27 C 794.36 373.08 795.95 372.85 797.50 372.29 C 797.10 371.43 796.72 370.58 796.34 369.73 C 796.80 366.50 798.76 364.05 800.95 361.79 C 804.11 360.38 806.21 357.67 808.17 354.93 C 810.72 354.18 813.19 353.02 815.26 351.32 C 817.90 351.07 817.64 353.89 815.48 354.56 C 815.47 355.11 815.43 356.22 815.42 356.77 C 813.30 359.57 811.58 362.69 808.97 365.08 C 808.59 366.66 808.17 368.23 807.81 369.83 C 808.44 369.48 809.70 368.80 810.33 368.46 C 810.40 369.40 810.47 370.36 810.55 371.31 C 809.96 371.57 808.78 372.09 808.18 372.36 C 807.83 374.29 808.76 377.16 806.20 377.77 C 806.91 381.81 807.45 385.88 807.23 390.00 C 808.69 390.57 809.68 391.70 810.00 393.26 C 812.10 397.82 815.60 401.58 819.70 404.43 C 824.15 403.17 828.77 402.86 833.31 402.00 C 835.64 399.64 838.93 396.38 842.49 398.50 C 846.43 399.58 847.51 404.00 848.00 407.55 C 849.60 410.39 852.92 409.46 855.61 409.58 C 857.08 408.21 858.69 407.02 860.41 405.98 C 860.22 405.22 859.85 403.70 859.66 402.95 C 863.72 402.21 865.94 398.09 869.98 397.63 C 870.68 394.79 873.97 395.07 876.07 396.17 C 877.76 396.27 879.46 396.30 881.18 396.35 C 881.17 395.57 881.15 394.02 881.14 393.25 C 882.85 391.59 884.76 390.14 886.58 388.61 C 889.38 385.68 891.35 382.08 892.91 378.37 C 894.19 377.71 895.49 377.05 896.79 376.40 C 900.39 378.06 904.70 375.80 907.21 373.11 C 909.96 368.93 906.62 364.66 906.74 360.27 C 907.22 360.58 908.20 361.20 908.69 361.51 C 910.07 360.85 911.48 360.26 912.88 359.63 C 912.00 358.69 911.12 357.76 910.25 356.84 C 910.25 355.71 910.26 354.58 910.28 353.46 C 912.99 351.50 914.82 348.74 916.05 345.66 C 916.78 345.63 918.22 345.57 918.95 345.54 C 921.91 343.69 924.24 341.10 926.21 338.24 C 928.40 337.54 930.89 336.69 932.51 338.96 C 935.01 337.12 937.89 336.99 940.38 339.01 Z" />
<path fill="#fefefe" d=" M 474.38 352.47 C 474.59 351.06 475.11 349.73 475.92 348.55 C 477.27 349.37 478.64 350.20 479.99 351.03 C 479.14 352.44 478.26 353.84 477.27 355.16 C 476.30 354.26 475.34 353.36 474.38 352.47 Z" />
<path fill="#050505" d=" M 976.10 372.24 C 977.50 369.89 978.15 367.10 980.01 365.03 C 981.53 366.66 982.68 368.58 983.88 370.45 C 984.26 370.51 985.01 370.61 985.39 370.67 C 985.07 371.30 984.42 372.56 984.09 373.19 C 984.66 373.80 985.24 374.41 985.83 375.03 C 985.83 374.32 985.84 372.89 985.84 372.18 C 986.30 372.36 987.23 372.74 987.70 372.92 C 987.64 372.28 987.54 370.99 987.48 370.35 C 990.28 370.98 993.21 371.62 994.98 374.11 C 994.97 377.25 996.30 380.14 996.89 383.19 C 995.22 383.01 993.58 382.82 991.94 382.59 C 990.37 384.01 988.43 384.82 986.54 385.70 C 985.53 386.82 984.80 388.14 983.92 389.35 C 982.96 390.31 981.89 391.13 980.66 391.68 C 979.73 393.34 977.76 392.98 976.18 392.92 C 975.09 391.80 974.84 390.18 974.21 388.81 C 973.00 388.78 971.80 388.76 970.62 388.74 C 969.27 387.73 967.86 386.81 966.47 385.91 C 967.71 384.13 968.55 381.81 970.77 381.01 C 971.31 379.62 971.67 378.16 971.95 376.69 C 973.32 375.20 974.83 373.83 976.10 372.24 Z" />
<path fill="#fefefe" d=" M 608.98 371.56 C 609.37 371.47 610.16 371.31 610.56 371.23 C 611.42 372.26 612.29 373.30 613.14 374.36 C 612.33 374.48 610.70 374.70 609.89 374.81 C 608.05 375.52 606.15 376.13 604.31 376.80 C 604.34 376.17 604.38 374.91 604.41 374.29 C 605.97 373.45 607.52 372.57 608.98 371.56 Z" />
<path fill="#fefefe" d=" M 244.26 382.87 C 244.66 382.70 245.45 382.37 245.85 382.20 C 246.75 382.72 247.65 383.24 248.56 383.77 C 248.13 384.40 247.70 385.03 247.28 385.67 C 246.91 385.58 246.15 385.42 245.78 385.33 C 245.27 384.50 244.77 383.68 244.26 382.87 Z" />
<path fill="#fefefe" d=" M 259.98 382.24 C 261.95 379.63 263.59 382.91 265.32 384.00 C 265.05 384.70 264.51 386.10 264.24 386.80 C 262.66 386.65 261.08 386.49 259.52 386.30 C 259.47 385.31 259.37 383.34 259.32 382.36 L 259.98 382.24 Z" />
<path fill="#050505" d=" M 987.51 394.05 C 989.32 392.84 991.32 391.88 993.06 390.53 C 995.01 390.47 996.97 390.46 998.94 390.45 C 999.21 392.06 999.58 393.68 1000.13 395.23 C 999.46 396.48 998.79 397.73 998.11 398.97 C 996.37 398.29 994.63 397.66 992.92 396.96 C 991.51 397.65 990.10 398.35 988.73 399.06 C 988.31 397.39 987.52 395.79 987.51 394.05 Z" />
<path fill="#fefefe" d=" M 876.20 412.24 C 876.77 412.82 876.77 412.82 876.20 412.24 Z" />
<path fill="#fefefe" d=" M 815.59 445.05 C 817.52 445.58 819.44 446.20 821.35 446.85 C 821.33 447.68 821.29 449.33 821.27 450.15 C 822.15 450.62 823.04 451.10 823.95 451.57 C 823.62 453.95 823.57 456.74 821.82 458.58 C 820.29 458.89 818.87 458.33 817.74 457.36 C 818.81 454.94 818.86 452.31 818.84 449.72 C 817.70 449.25 816.56 448.79 815.44 448.32 C 815.48 447.22 815.53 446.13 815.59 445.05 Z" />
<path fill="#fefefe" d=" M 670.08 463.67 C 671.41 463.91 671.62 464.64 670.73 465.83 C 669.41 465.58 669.20 464.86 670.08 463.67 Z" />
<path fill="#fefefe" d=" M 398.87 464.05 C 399.89 465.79 400.99 467.72 403.32 466.47 C 403.33 467.15 403.35 468.50 403.36 469.18 C 402.72 469.21 401.43 469.27 400.79 469.30 C 400.53 469.70 400.01 470.49 399.75 470.89 C 399.02 469.42 398.33 467.94 397.65 466.46 C 397.95 465.86 398.57 464.65 398.87 464.05 Z" />
<path fill="#fefefe" d=" M 692.48 476.87 C 693.07 476.86 694.27 476.83 694.87 476.82 C 694.86 477.68 694.86 478.54 694.87 479.42 C 694.27 479.40 693.06 479.36 692.46 479.33 C 692.45 478.51 692.46 477.68 692.48 476.87 Z" />
<path fill="#fefefe" d=" M 700.82 493.20 C 698.94 493.26 699.32 490.26 700.97 490.20 C 702.91 490.08 702.38 493.04 700.82 493.20 Z" />
</svg>
